# xmcd
#
# Track frame offsets: 
#        150
#        20162
#        43205
#        54645
#        74885
#        92140
#        112232
#        128282
#        142515
#        156685
#        177937
#
# Disc length: 2564 seconds
#
# Revision: 3
# Processed by: cddbd v1.5.2PL0 Copyright (c) Steve Scherf et al.
# Submitted via: ExactAudioCopy v1.0b3
#
DISCID=a40a020b
DTITLE=Roy Gaines - Bluesman For Life
DYEAR=1998
DGENRE=Blues
TTITLE0=Bluesman For Life
TTITLE1=It's Midnight Baby
TTITLE2=Roy Jumps The Gator
TTITLE3=You Went Back On Your Word
TTITLE4=Lulu Mae
TTITLE5=Sweet Pig Porker
TTITLE6=Jump In My Cadillac
TTITLE7=Cat Came Back
TTITLE8=BWR
TTITLE9=You're Gonna Wish I Had Stayed
TTITLE10=Fly Away To Glory
EXTD=Album: Bluesman for Life\nyour name: Roy Gaines YEAR: 1998
EXTT0=
EXTT1=
EXTT2=
EXTT3=
EXTT4=
EXTT5=
EXTT6=
EXTT7=
EXTT8=
EXTT9=
EXTT10=
PLAYORDER=
